<svg xmlns="http://www.w3.org/2000/svg" xmlns:xlink="http://www.w3.org/1999/xlink" width="170px" height="123px" viewBox="0 0 170 123" version="1.1" x="0px" y="0px" xml:space="preserve">
    <g id="Layer_2">
        <g>
            <g>
                <polygon fill-rule="evenodd" clip-rule="evenodd" fill="#7FB439" points="64.369,58.925 67.592,40.928 104.217,40.928      90.859,109.929 68.055,109.929 77.038,58.925 64.369,58.925    " />
                <path fill-rule="evenodd" clip-rule="evenodd" fill="#7FB439" d="M94.325,10c6.334,0,11.506,5.175,11.506,11.52     c0,6.337-5.172,11.515-11.506,11.515c-6.345,0-11.528-5.178-11.528-11.515C82.796,15.175,87.98,10,94.325,10L94.325,10z" />
                <path fill-rule="evenodd" clip-rule="evenodd" fill="#13BDCE" d="M85.808,97.896C29.514,84.403,3.524,44.864,11.371,29.233     c7.472-15.319,30.607-20.152,65.402-11.402c-19.221-4.481-49.52-1.556-53.64,16.1C16.472,55.218,50.884,89.124,85.808,97.896     L85.808,97.896z" />
                <path fill-rule="evenodd" clip-rule="evenodd" fill="#13BDCE" d="M104.272,27.11c18.601,8.742,36.354,21.554,44.669,38.477     c5.607,11.827,4.652,27.471-9.855,33.686c-10.85,4.581-24.011,4.581-37.734,3.235c25.449,6.017,44.357,5.217,55.551-3.852     c10.854-10.878,9.214-24.084-0.675-37.384C141.816,44.052,120.787,32.434,104.272,27.11L104.272,27.11z" />
            </g>
        </g>
    </g>
</svg>