<svg xmlns="http://www.w3.org/2000/svg" viewBox="0 0 451.1 70.19"><defs><style>.cls-1{fill:#13bdce;}.cls-2{fill:#7fb439;}.cls-3{font-size:12px;font-family:ArialMT, Arial;}</style></defs><title>IndegeneVEM_logo</title><g id="Layer_1" data-name="Layer 1"><g id="Layer_2" data-name="Layer 2"><path class="cls-1" d="M40.1,95H27.49l6.26-39.83H46.36L40.1,95Zm7.52-45.5H34.29l1.53-9.69H49.15l-1.53,9.69ZM85.41,95H72.73l3.1-19.75c.25-1.61.45-3.22.56-4.81a10.27,10.27,0,0,0-.18-3.52,3.23,3.23,0,0,0-1.57-2,7.24,7.24,0,0,0-3.19-.58,10.08,10.08,0,0,0-3.23.58,18.26,18.26,0,0,0-3.67,1.79L60.11,95H47.51l6.26-39.83H66.38l-.7,4.4a37.26,37.26,0,0,1,6.68-4,15.73,15.73,0,0,1,6.73-1.46q6.21,0,8.87,3.84t1.52,11.15L85.41,95Zm43.85,0H116.65l.65-4.16c-.9.67-2,1.38-3.12,2.13a20.74,20.74,0,0,1-3,1.7A18.4,18.4,0,0,1,108,95.76a16.49,16.49,0,0,1-3.59.36q-6.91,0-10.07-5.65c-2.11-3.76-2.65-8.79-1.67-15.08a30,30,0,0,1,2.79-9,26.44,26.44,0,0,1,4.84-6.68,20.34,20.34,0,0,1,6-4.09,16.62,16.62,0,0,1,6.87-1.51,16.33,16.33,0,0,1,5.11.65,26,26,0,0,1,4.41,2.05l2.67-17h12.61L129.26,95ZM118.38,84l3.08-19.55a9.21,9.21,0,0,0-2.33-.76,13.82,13.82,0,0,0-2.55-.3,9.31,9.31,0,0,0-7.31,3.13,16.68,16.68,0,0,0-3.67,8.72c-.62,3.92-.46,6.77.48,8.51s2.75,2.62,5.48,2.62a10.25,10.25,0,0,0,3.45-.64A14.71,14.71,0,0,0,118.38,84Zm38.83,12c-7.64,0-13.21-1.78-16.71-5.39s-4.74-8.72-3.7-15.35,3.73-11.71,8.14-15.57,10-5.82,16.84-5.82q9.32,0,13.21,4.92T177.45,73l-.7,4.46H149.1a10.08,10.08,0,0,0,.48,4.63,6.46,6.46,0,0,0,2.19,3,8.86,8.86,0,0,0,3.52,1.56,19.78,19.78,0,0,0,4.66.49,19.4,19.4,0,0,0,4.4-.49,22.36,22.36,0,0,0,4.08-1.25,31,31,0,0,0,3.11-1.45c1-.53,1.74-1,2.36-1.38h1.32l-1.6,10.25-3,1.12a29.25,29.25,0,0,1-3.67,1,35,35,0,0,1-4.36.84,39.28,39.28,0,0,1-5.36.3ZM165.5,70c.34-2.62,0-4.61-.92-6s-2.63-2.05-5-2.05a8.82,8.82,0,0,0-6.08,2.17A10.61,10.61,0,0,0,150.25,70Zm38.87,12.48,2.84-18a10.63,10.63,0,0,0-2.19-.71,14.47,14.47,0,0,0-2.7-.28,9.6,9.6,0,0,0-7.27,2.89,14.72,14.72,0,0,0-3.57,8.07,22.85,22.85,0,0,0-.34,4.36,7.22,7.22,0,0,0,.78,3.19,4.55,4.55,0,0,0,2,2,8,8,0,0,0,3.61.7,11.27,11.27,0,0,0,3.44-.57,14.09,14.09,0,0,0,3.36-1.64Zm11.36,8a27.51,27.51,0,0,1-3.11,9.4,18.41,18.41,0,0,1-5.37,6A21.1,21.1,0,0,1,200,109a38.53,38.53,0,0,1-8.86,1,51.79,51.79,0,0,1-7.57-.51,59.19,59.19,0,0,1-6.1-1.21l1.57-10h1.47c.6.25,1.3.5,2.1.78s1.62.55,2.45.79c1,.25,2,.47,2.92.64a22.06,22.06,0,0,0,8.46-.41,8.54,8.54,0,0,0,3.51-1.87,8.86,8.86,0,0,0,2-2.91,20.06,20.06,0,0,0,1.1-4.24l.12-.75a21.53,21.53,0,0,1-5.39,3,17,17,0,0,1-5.92,1.11q-7.84,0-11.33-5t-1.86-15.33a27.94,27.94,0,0,1,2.64-8.4,23.27,23.27,0,0,1,4.65-6.34,18.4,18.4,0,0,1,6-3.88,18,18,0,0,1,6.8-1.37,17.11,17.11,0,0,1,5.42.78A15.47,15.47,0,0,1,208.31,57l.75-1.77h12.2l-5.53,35.25ZM243,96.07c-7.64,0-13.21-1.78-16.72-5.39s-4.73-8.72-3.7-15.35a25.14,25.14,0,0,1,8.15-15.57q6.62-5.82,16.84-5.82,9.3,0,13.21,4.92T263.19,73l-.69,4.46H234.85a10.24,10.24,0,0,0,.46,4.63,6.5,6.5,0,0,0,2.21,3A8.68,8.68,0,0,0,241,86.61a21.17,21.17,0,0,0,9.06,0,22,22,0,0,0,4.07-1.25,32,32,0,0,0,3.11-1.45c1-.53,1.74-1,2.36-1.38H261l-1.61,10.25-3,1.12a30.22,30.22,0,0,1-3.69,1,35,35,0,0,1-4.36.84,39.28,39.28,0,0,1-5.36.3ZM251.25,70c.33-2.62,0-4.61-.93-6s-2.61-2.05-5-2.05a8.87,8.87,0,0,0-6.09,2.17A10.67,10.67,0,0,0,236,70ZM301.87,95H289.19l3.12-19.75c.24-1.61.44-3.22.55-4.81a10,10,0,0,0-.19-3.52,3.2,3.2,0,0,0-1.57-2,7.16,7.16,0,0,0-3.18-.58,10.13,10.13,0,0,0-3.23.58A17.82,17.82,0,0,0,281,66.77L276.57,95H264l6.26-39.83h12.6l-.69,4.4a36.91,36.91,0,0,1,6.68-4,15.69,15.69,0,0,1,6.72-1.46q6.22,0,8.88,3.84T306,69.07L301.87,95Zm27.62,1.06c-7.64,0-13.22-1.78-16.72-5.39S308,82,309.08,75.33s3.73-11.71,8.14-15.57,10-5.82,16.85-5.82q9.3,0,13.21,4.92T349.74,73L349,77.45H321.39a10.24,10.24,0,0,0,.46,4.63,6.62,6.62,0,0,0,2.2,3,8.91,8.91,0,0,0,3.53,1.56,21.17,21.17,0,0,0,9.06,0,22.61,22.61,0,0,0,4.08-1.25,31.82,31.82,0,0,0,3.1-1.45q1.44-.8,2.37-1.38h1.33L345.9,92.78l-3,1.12a29,29,0,0,1-3.68,1,34.62,34.62,0,0,1-4.36.84,39.18,39.18,0,0,1-5.36.3ZM337.78,70c.34-2.62,0-4.61-.91-6s-2.63-2.05-5-2.05a8.85,8.85,0,0,0-6.09,2.17A10.67,10.67,0,0,0,322.53,70Z" transform="translate(-27.49 -39.81)"/></g></g><g id="Layer_2-2" data-name="Layer 2"><polygon class="cls-2" points="330.78 16.59 347.15 55.88 363.51 16.59 351.51 16.59 347.15 27.5 343.87 16.59 330.78 16.59"/><path class="cls-2" d="M415,67.32V56.41h-13.1s-8.73,1.09-8.73,10.91V84.78c0,4.36,4.37,9.82,12,9.82H415V83.69h-8.73a2.14,2.14,0,0,1-2.18-2.18,2.35,2.35,0,0,1,2.18-2.19h7.64V71.68h-6.55a2.14,2.14,0,0,1-2.18-2.18,2.34,2.34,0,0,1,2.18-2.18Z" transform="translate(-27.49 -39.81)"/><path class="cls-2" d="M420.46,94.6V65.14c0-5.46,5.46-9.82,12-9.82a9.41,9.41,0,0,1,8.73,5.45A12.08,12.08,0,0,1,451,55.32c6.55,0,10.91,6.54,10.91,12V94.6h-12V68.41s0-2.18-1.09-2.18a2.14,2.14,0,0,0-2.19,2.18V94.6H435.74V68.41a2.14,2.14,0,0,0-2.18-2.18c-1.09,0-1.09,2.18-1.09,2.18V94.6Z" transform="translate(-27.49 -39.81)"/></g><g id="Layer_3" data-name="Layer 3"><text class="cls-3" transform="translate(433.78 18.88)">TM</text></g></svg>